<svg xmlns="http://www.w3.org/2000/svg" viewBox="0 0 772.95 284.2"><g id="Capa_2" data-name="Capa 2"><g id="Capa_15" data-name="Capa 15"><path d="M325.24,81.2A42.94,42.94,0,0,0,311.37,52a46.42,46.42,0,0,0-31.6-12c-29.33,0-50,15.48-63.34,47.31-6,14.34-11.89,32.72-17.67,55H182.55V111.73H162.71v30.52H132.2c.3-11.29.06-22-.14-31.29-.08-3.56-.16-6.92-.19-9.86-.32-32.64,5.59-54.6,18.07-67.13,9.47-9.5,23.33-14.13,42.37-14.13H193c23.3.14,34.67,8.07,34.79,8.15l-.11-.08,12-15.83C238,10.86,223,.18,193.14,0c-12.15-.06-23,1.51-32.38,4.69A63.81,63.81,0,0,0,135.88,20c-8.52,8.55-14.81,20-18.71,34.07-3.64,13.16-5.32,28.62-5.14,47.26,0,3.06.11,6.48.19,10.11.2,9,.44,19.67.11,30.84h-41c-22.05,0-39.35,4.13-51.44,12.26C6.86,163.25,0,176.48,0,192.78a48.05,48.05,0,0,0,7,25.48,49.81,49.81,0,0,0,17.91,17.16,66.55,66.55,0,0,0,33.27,8.45l1.69,0A77.68,77.68,0,0,0,97,233.41c22.91-13.26,31.22-42.21,34-71.31h31.68v.15c0,21.87,0,79.95,10.82,115a9.91,9.91,0,0,0,9.47,7c.27,0,.53,0,.8,0a9.92,9.92,0,0,0,9-8.51c.12-.84,8.28-58.48,21.46-113.56H345.86V142.25H219.3c4.69-17.5,9.87-34,15.45-47.3,13-31.13,30.88-35.12,45-35.12,13.53,0,24.15,9,25.56,21.37H284.66c-3,0-10,0-16.3,2.62-8.94,3.69-14.08,11.47-14.08,21.35,0,8.86,4.34,16.42,12.22,21.26a36.37,36.37,0,0,0,18.31,5.14c11.76,0,21.31-3.68,28.38-10.94A42,42,0,0,0,323.54,101H366V81.2ZM109.67,172.45c-3.73,22.53-11.33,37.27-22.6,43.79-16.63,9.63-37.65,10.43-52.29,2C28,214.3,19.84,206.69,19.84,192.78c0-20.36,17.31-30.68,51.44-30.68h39.78C110.69,165.59,110.23,169.05,109.67,172.45ZM185,203.69c-.44,2.27-.87,4.52-1.3,6.73-1.15-20.31-1.15-38.88-1.15-48.17v-.15h11.32Q189.37,181.33,185,203.69Zm114-96.9c-3.24,3.32-7.87,4.94-14.16,4.94a16.52,16.52,0,0,1-7.91-2.19c-2.56-1.58-2.77-3.09-2.77-4.37,0-2.18.52-2.48,1.79-3,2.72-1.12,6.94-1.12,8.74-1.12h18A18.79,18.79,0,0,1,299,106.79Z"/><rect x="223.76" y="203.31" width="142.25" height="19.84"/><ellipse cx="172.64" cy="70.73" rx="15.12" ry="15.35"/><path d="M419.74,88.56H406.63V80.84h35.69v7.72h-13.1V121.8h-9.48Z"/><path d="M483.63,80.84v41h-9.48V105H455.54v16.8h-9.47v-41h9.47V97h18.61V80.84Z"/><path d="M523.71,114.19v7.61H492v-41h31v7.61H501.42v8.89h19v7.37h-19v9.48Z"/><path d="M582.68,80.84v41h-9.47V105H554.6v16.8h-9.48v-41h9.48V97h18.61V80.84Z"/><path d="M610.71,107.29V121.8h-9.48V107.17L585.37,80.84h10.07L606.38,99l10.94-18.2h9.3Z"/><path d="M664.42,104.21a10.25,10.25,0,0,1,2,6.41,9.48,9.48,0,0,1-4.18,8.28q-4.18,2.89-12.2,2.9H628.85v-41h20q7.49,0,11.49,2.87a9,9,0,0,1,4,7.78,9.84,9.84,0,0,1-5.44,9A10.84,10.84,0,0,1,664.42,104.21ZM638.27,88v9.65h9.42A9.49,9.49,0,0,0,653,96.4a4.09,4.09,0,0,0,1.82-3.62,4,4,0,0,0-1.82-3.6,9.68,9.68,0,0,0-5.32-1.2ZM655,113.43a4.2,4.2,0,0,0,1.9-3.8q0-5.1-7.54-5.09H638.27v10.12h11.06A10.49,10.49,0,0,0,655,113.43Z"/><path d="M698.36,121.8l-7.9-11.41h-8.72V121.8h-9.48v-41H690a22.89,22.89,0,0,1,9.45,1.81,14.05,14.05,0,0,1,6.17,5.15,14.24,14.24,0,0,1,2.17,7.9,13.36,13.36,0,0,1-8.43,12.93l9.19,13.17ZM696,90.41c-1.49-1.23-3.65-1.85-6.5-1.85h-7.72v14.28h7.72c2.85,0,5-.62,6.5-1.87a7.39,7.39,0,0,0,0-10.56Z"/><path d="M713.92,80.84h9.48v41h-9.48Z"/><path d="M731.76,80.84h18.61a26.12,26.12,0,0,1,11.79,2.55,19.08,19.08,0,0,1,8,7.16,21.89,21.89,0,0,1,0,21.53,19.1,19.1,0,0,1-8,7.17,26.12,26.12,0,0,1-11.79,2.55H731.76ZM749.9,114q6.15,0,9.8-3.42a12.07,12.07,0,0,0,3.66-9.27A12.11,12.11,0,0,0,759.7,92q-3.66-3.42-9.8-3.42h-8.66V114Z"/><path d="M481.13,223.54,481,174.61l-24,40.31h-8.5l-23.89-39.26v47.88H406.91V142h15.62l30.52,50.69L483.11,142h15.5l.23,81.56Z"/><path d="M531.58,142h18.87v81.56H531.58Z"/><path d="M658,142v81.56h-15.5L601.83,174v49.52H583.19V142H598.8l40.55,49.52V142Z"/><path d="M690.73,142h37a52,52,0,0,1,23.47,5.07,38,38,0,0,1,15.85,14.28,43.49,43.49,0,0,1,0,42.87,37.93,37.93,0,0,1-15.85,14.27,52,52,0,0,1-23.47,5.07h-37Zm36.12,66.07q12.23,0,19.51-6.82t7.28-18.47q0-11.64-7.28-18.46t-19.51-6.82H709.6v50.57Z"/></g></g></svg>